<svg width="100" height="100" viewBox="0 0 100 100" fill="none" xmlns="http://www.w3.org/2000/svg">
<path d="M67.9219 20.0012H54.5C53.25 20.0012 52.0469 20.47 51.125 21.3137L35.7656 35.3762C35.75 35.3919 35.7344 35.4231 35.7188 35.4387C33.125 37.8762 33.1719 41.7669 35.3906 44.1888C37.375 46.3606 41.5469 46.9388 44.1562 44.6106C44.1719 44.595 44.2031 44.595 44.2188 44.5794L56.7031 33.1419C57.7188 32.22 59.3125 32.2825 60.2344 33.2981C61.1719 34.3137 61.0938 35.8919 60.0781 36.8294L56 40.5638L78.75 59.0325C79.2031 59.4075 79.6094 59.8138 79.9844 60.2357V30.0012L71.4531 21.47C70.5312 20.5325 69.25 20.0012 67.9219 20.0012ZM85 30.0325V65.0169C85 67.7825 87.2344 70.0169 90 70.0169H100V30.0325H85ZM92.5 65.0169C91.125 65.0169 90 63.8919 90 62.5169C90 61.1419 91.125 60.0169 92.5 60.0169C93.875 60.0169 95 61.1419 95 62.5169C95 63.8919 93.875 65.0169 92.5 65.0169ZM0 70.0013H10C12.7656 70.0013 15 67.7669 15 65.0013V30.0325H0V70.0013ZM7.5 60.0169C8.875 60.0169 10 61.1419 10 62.5169C10 63.8919 8.875 65.0169 7.5 65.0169C6.125 65.0169 5 63.8919 5 62.5169C5 61.1263 6.125 60.0169 7.5 60.0169ZM75.6094 62.9232L52.2812 43.9856L47.5938 48.2825C42.9531 52.5169 35.8438 52.1106 31.7031 47.595C27.5 43.0013 27.8281 35.8919 32.3906 31.7044L45.1719 20.0012H32.0781C30.75 20.0012 29.4844 20.5325 28.5469 21.47L20 30.0012V64.9857H22.8594L37 77.7826C41.2812 81.2669 47.5781 80.6107 51.0625 76.3294L51.0938 76.2982L53.8906 78.7201C56.375 80.7513 60.0469 80.3607 62.0625 77.8763L66.9688 71.845L67.8125 72.5326C69.9531 74.2669 73.1094 73.9544 74.8438 71.7982L76.3281 69.97C78.0781 67.8138 77.75 64.6732 75.6094 62.9232Z" fill="black"/>
</svg>
