<svg width="64" height="64" viewBox="0 0 64 64" fill="none" xmlns="http://www.w3.org/2000/svg">
<path d="M63.3657 34.3823C63.3657 34.3823 63.5254 32.2043 60.7174 30.9669C57.9095 29.7294 54.4579 28.4458 54.4579 28.4458L47.7157 19.4557C47.7157 19.4557 46.7564 18 44.1842 18C41.536 18 14.5707 18.0923 14.5707 18.0923C14.5707 18.0923 12.5948 18 12.0821 19.9385C12.0384 20.1044 11.9947 20.2915 11.9511 20.4973L16.4655 20.4986C17.9674 20.4986 19.1923 21.721 19.1948 23.2292C19.1923 24.731 17.9699 25.9535 16.4667 25.9535L11.2675 25.9523C11.2201 26.5984 11.1789 27.3007 11.1428 28.0354H13.4954C14.9985 28.0354 16.221 29.2591 16.221 30.7598C16.221 31.4883 15.9378 32.1756 15.4239 32.6908C14.9087 33.206 14.2251 33.4891 13.4929 33.4891H11.008C11.0068 34.159 11.0105 34.8525 11.0193 35.5673H11.5108C11.512 35.5673 11.5132 35.5673 11.5132 35.5673C13.0151 35.5711 14.2376 36.7948 14.2376 38.2967C14.2376 39.801 13.0151 41.026 11.5108 41.026H11.1789C11.1877 41.1956 11.1927 41.3553 11.2001 41.5262C11.2001 41.5262 11.3399 43.935 12.7956 43.9337C12.9989 43.9337 14.0966 43.9337 15.8305 43.9337C15.6322 43.3387 15.5187 42.7063 15.5187 42.0451C15.5187 38.752 18.1994 36.0725 21.4925 36.0725C24.7857 36.0725 27.4652 38.752 27.4652 42.0451C27.4652 42.7063 27.3541 43.3387 27.1546 43.9337C33.7821 43.9337 41.5871 43.9337 48.045 43.9337C47.8454 43.3399 47.7344 42.7063 47.7344 42.0451C47.7344 38.752 50.4138 36.0725 53.7082 36.0725C57.0001 36.0725 59.6808 38.752 59.6808 42.0451C59.6808 42.7063 59.5686 43.3399 59.369 43.935C60.4842 43.935 61.1191 43.935 61.1191 43.935C61.1191 43.935 63.0451 43.9337 63.3657 41.848C63.6863 39.7599 63.3657 34.3823 63.3657 34.3823ZM39.1484 28.3523V20.9489H45.2308C47.5161 21.4491 51.7673 28.3523 51.7673 28.3523H39.1484Z" fill="#FF3841"/>
<path d="M21.4936 37.804C19.151 37.804 17.2524 39.7038 17.2524 42.0439C17.2524 42.7262 17.4296 43.3612 17.7152 43.9325C18.4113 45.3234 19.8333 46.2876 21.4949 46.2876C23.1552 46.2876 24.5772 45.3234 25.2733 43.9325C25.559 43.3612 25.7361 42.7275 25.7361 42.0439C25.7348 39.7038 23.8363 37.804 21.4936 37.804Z" fill="#FF9DA2"/>
<path d="M53.708 37.804C51.3641 37.804 49.4656 39.7038 49.4656 42.0439C49.4656 42.7262 49.6427 43.3624 49.9284 43.9325C50.6244 45.3234 52.0477 46.2864 53.708 46.2864C55.3671 46.2864 56.7891 45.3234 57.4852 43.9337C57.7709 43.3624 57.948 42.7262 57.948 42.0439C57.948 39.7038 56.0494 37.804 53.708 37.804Z" fill="#FF9DA2"/>
<path d="M16.4667 24.479C17.159 24.479 17.7203 23.9177 17.7216 23.2254C17.7203 22.5318 17.159 21.9692 16.4654 21.9692L11.6903 21.968L2.25614 21.9667H2.2549C2.205 21.9667 2.15885 21.9767 2.11144 21.9817C2.07527 21.9854 2.03785 21.9854 2.00292 21.9929C1.95178 22.0017 1.90437 22.0216 1.85448 22.0378C1.82579 22.0478 1.7946 22.0541 1.76716 22.0653C1.71601 22.0865 1.67111 22.1152 1.62371 22.1414C1.60001 22.1551 1.57506 22.1651 1.5526 22.18C1.50146 22.215 1.45531 22.2574 1.40915 22.2985C1.39543 22.311 1.38046 22.321 1.36674 22.3335C1.32058 22.3796 1.28192 22.432 1.242 22.4857C1.23327 22.4981 1.22204 22.5069 1.21331 22.5206C1.18711 22.558 1.1684 22.6017 1.14844 22.6416C1.13223 22.6728 1.11227 22.7015 1.09855 22.7339C1.03493 22.8836 1 23.0495 1 23.2229C1 23.5684 1.14096 23.884 1.36799 24.1085C1.4815 24.2233 1.61747 24.3156 1.76716 24.3792C1.78462 24.3855 1.80333 24.3892 1.8208 24.3954C1.88067 24.4179 1.9393 24.4391 2.00042 24.4516C2.03535 24.4578 2.07277 24.4578 2.1077 24.4628C2.15635 24.4678 2.20251 24.4765 2.2524 24.4765H2.2549L11.3909 24.4778L16.4667 24.479Z" fill="#FF9DA2"/>
<path d="M13.4915 32.016C13.4915 32.016 13.4928 32.016 13.494 32.016C13.5377 32.016 13.5801 32.0072 13.6213 32.0035C13.6624 31.9998 13.7048 31.9998 13.7448 31.991C13.7859 31.9823 13.8233 31.9673 13.862 31.9549C13.9019 31.9424 13.9431 31.9336 13.9805 31.9187C14.0242 31.9 14.0641 31.8738 14.1053 31.8513C14.1352 31.8339 14.1651 31.8214 14.1926 31.8039C14.2387 31.7727 14.2786 31.7353 14.3211 31.6991C14.3398 31.6829 14.361 31.6704 14.3784 31.6517C14.4208 31.6081 14.4583 31.5594 14.4944 31.512C14.5057 31.4958 14.5206 31.4821 14.5319 31.4659C14.5655 31.416 14.5917 31.3598 14.6192 31.305C14.6267 31.2862 14.6391 31.2713 14.6479 31.2526C14.6716 31.1964 14.6878 31.1353 14.7028 31.0754C14.7065 31.0542 14.7152 31.0355 14.7202 31.0156C14.7377 30.9332 14.7464 30.8484 14.7464 30.7611C14.7464 30.675 14.7377 30.5902 14.7202 30.5091C14.7115 30.4605 14.694 30.4168 14.6778 30.3706C14.6678 30.3395 14.6604 30.3045 14.6479 30.2733C14.6342 30.2409 14.6142 30.2135 14.598 30.1823C14.5768 30.1411 14.5568 30.0987 14.5306 30.06C14.5144 30.0363 14.4944 30.0176 14.477 29.9939C14.4458 29.9528 14.4146 29.9116 14.3784 29.8742C14.3522 29.848 14.3223 29.8268 14.2924 29.8031C14.2599 29.7756 14.2287 29.7457 14.1926 29.7207C14.1614 29.6995 14.1252 29.6846 14.0915 29.6646C14.0541 29.6434 14.0179 29.6209 13.9793 29.6047C13.9418 29.5885 13.9007 29.5785 13.8595 29.5673C13.8221 29.5561 13.7834 29.5399 13.7435 29.5311C13.7036 29.5236 13.6599 29.5224 13.6163 29.5187C13.5751 29.5149 13.5339 29.5062 13.4915 29.5062C13.4903 29.5062 13.489 29.5062 13.489 29.5062L11.0778 29.5049L5.71266 29.5024C5.02035 29.5024 4.45901 30.0638 4.45776 30.7573C4.45901 31.1041 4.59872 31.4172 4.82575 31.6455C5.05278 31.8738 5.36588 32.0122 5.71391 32.0147H11.0167H13.4915V32.016Z" fill="#FF9DA2"/>
<path d="M12.7657 38.2954C12.7657 37.6019 12.2043 37.0405 11.5108 37.038H11.0455H8.3548C7.65875 37.0393 7.09741 37.6019 7.09741 38.2942C7.09741 38.6422 7.23837 38.9553 7.46789 39.1823C7.69368 39.4106 8.00802 39.5516 8.3548 39.5516H11.1191H11.512C12.2043 39.5528 12.7657 38.9902 12.7657 38.2954Z" fill="#FF9DA2"/>
</svg>
