<svg id="Icon" xmlns="http://www.w3.org/2000/svg" viewBox="0 0 100 100"><defs><style>.cls-1,.cls-2,.cls-3,.cls-4{fill:none;stroke:#e3000f;stroke-width:2px;}.cls-1,.cls-3,.cls-4{stroke-linecap:round;}.cls-1{stroke-miterlimit:10;}.cls-4{stroke-linejoin:round;}</style></defs><title>HOYER_Containerservices_100_100_rot</title><polyline class="cls-1" points="71.69 33.1 71.69 21.71 12.5 21.71 12.5 48.05 23.52 48.05"/><path class="cls-1" d="M48.52,44.25H18.46a1.75,1.75,0,0,1-1.75-1.75V27.26a1.75,1.75,0,0,1,1.75-1.75H65.73a1.75,1.75,0,0,1,1.75,1.75V30"/><line class="cls-2" x1="26.86" y1="25.55" x2="26.86" y2="44.25"/><line class="cls-3" x1="37.02" y1="25.55" x2="37.02" y2="43.62"/><line class="cls-4" x1="47.17" y1="25.55" x2="47.17" y2="43.8"/><line class="cls-3" x1="57.33" y1="25.55" x2="57.33" y2="29.79"/><path class="cls-1" d="M84.07,39.07h3.08m-33.7,0H84.17M56.41,44.34H84.17M52.61,67H87.15m-33.7-8.64h33.7m-2.77,0V33.55H55.86V57.6m0,9.38v3.3l14,5.4,14.5-5.27V67"/><line class="cls-3" x1="87.5" y1="29.63" x2="87.5" y2="77.7"/><line class="cls-3" x1="52.61" y1="29.63" x2="52.61" y2="77.34"/><line class="cls-1" x1="39.5" y1="48.05" x2="52.52" y2="48.05"/><path class="cls-2" d="M26.6,63.54a4.92,4.92,0,1,0,4.91-4.94A4.93,4.93,0,0,0,26.6,63.54Z"/><path class="cls-2" d="M17,61.14a1.25,1.25,0,0,1,1.07-1.06l2.27-.33A14.82,14.82,0,0,1,21,58.32L19.6,56.48a1.29,1.29,0,0,1,0-1.52A14.59,14.59,0,0,1,23,51.56a1.28,1.28,0,0,1,1.51,0L26.32,53a12.51,12.51,0,0,1,1.42-.59l.32-2.28A1.27,1.27,0,0,1,29.12,49a14.26,14.26,0,0,1,4.79,0A1.27,1.27,0,0,1,35,50.08l.32,2.28a12.51,12.51,0,0,1,1.42.59l1.83-1.38a1.29,1.29,0,0,1,1.52,0A14.78,14.78,0,0,1,43.45,55a1.29,1.29,0,0,1,0,1.52l-1.37,1.84c.22.47.42,1,.59,1.43l2.26.33A1.27,1.27,0,0,1,46,61.14,15.32,15.32,0,0,1,46,66,1.27,1.27,0,0,1,44.91,67l-2.26.33c-.17.48-.37,1-.59,1.43l1.37,1.84a1.27,1.27,0,0,1,0,1.52,14.78,14.78,0,0,1-3.39,3.4,1.26,1.26,0,0,1-1.51,0l-1.84-1.38a12.51,12.51,0,0,1-1.42.59L35,77a1.27,1.27,0,0,1-1.06,1.08,14.44,14.44,0,0,1-4.79,0A1.26,1.26,0,0,1,28.06,77l-.32-2.28a14.65,14.65,0,0,1-1.42-.59l-1.83,1.38a1.28,1.28,0,0,1-1.52,0,14.78,14.78,0,0,1-3.39-3.4,1.27,1.27,0,0,1,0-1.52L21,68.77c-.22-.47-.42-1-.59-1.43L18.11,67A1.25,1.25,0,0,1,17,66a14.56,14.56,0,0,1,0-4.81Z"/></svg>