<svg id="Icon" xmlns="http://www.w3.org/2000/svg" viewBox="0 0 100 100"><defs><style>.cls-1,.cls-2,.cls-3,.cls-4,.cls-5,.cls-6{fill:none;stroke:#e3000f;}.cls-1,.cls-3,.cls-4,.cls-5,.cls-6{stroke-linecap:round;}.cls-1{stroke-miterlimit:10;}.cls-1,.cls-2,.cls-3,.cls-4{stroke-width:2px;}.cls-4,.cls-6{stroke-linejoin:round;}</style></defs><title>HOYER_Rental_100_100_rot</title><polyline class="cls-1" points="72.48 33.17 72.48 21.63 12.5 21.63 12.5 48.32 30.66 48.32"/><path class="cls-1" d="M33.71,44.47H18.54a1.77,1.77,0,0,1-1.77-1.77V27.25a1.77,1.77,0,0,1,1.77-1.77h47.9a1.77,1.77,0,0,1,1.77,1.77v5.89"/><line class="cls-2" x1="27.06" y1="25.52" x2="27.06" y2="44.47"/><line class="cls-3" x1="37.34" y1="25.52" x2="37.34" y2="40.83"/><line class="cls-4" x1="47.63" y1="25.52" x2="47.63" y2="36.01"/><line class="cls-2" x1="57.92" y1="25.52" x2="57.92" y2="33.81"/><path class="cls-1" d="M84,39.22h3.12m-24.56,0H84.13M62.58,44.56H84.13m-32,22.93h35M57.92,58.74H87.14m-2.8,0V33.63H55.44V36m0,31.5v3.34l14.21,5.47L84.34,71V67.51"/><path class="cls-3" d="M52.15,64.76V78.37"/><line class="cls-3" x1="87.5" y1="29.66" x2="87.5" y2="78.37"/><line class="cls-3" x1="52.15" y1="29.66" x2="52.15" y2="36.01"/><path class="cls-4" d="M57.38,54.56,38.63,73.22a3.46,3.46,0,0,1-4.89,0l-9.06-9.06a3.31,3.31,0,0,1,0-4.68L43.54,40.62a5.16,5.16,0,0,1,3.66-1.51h7.94a3.39,3.39,0,0,1,3.4,3.29v9.21A4,4,0,0,1,57.38,54.56Z"/><line class="cls-5" x1="36.35" y1="57.29" x2="40.79" y2="61.73"/><line class="cls-5" x1="36.35" y1="57.29" x2="38.55" y2="55.09"/><line class="cls-5" x1="40.79" y1="61.73" x2="42.99" y2="59.53"/><line class="cls-5" x1="38.5" y1="59.44" x2="40.19" y2="57.75"/><line class="cls-5" x1="46.31" y1="47.41" x2="49.08" y2="44.64"/><line class="cls-5" x1="47.7" y1="46.02" x2="52.14" y2="50.46"/><polyline class="cls-6" points="45.21 57.4 40.76 52.95 48.59 54.01 44.15 49.57"/><path class="cls-5" d="M38.56,64s-2.15-.43-3.66-.71c.74-.73,1.15-1.6.18-2.57s-2.2,0-2.57.37l-1.2,1.2,4.49,4.49"/><line class="cls-4" x1="54.63" y1="42.86" x2="59.72" y2="37.77"/></svg>