<svg id="Icon" xmlns="http://www.w3.org/2000/svg" viewBox="0 0 100 100"><defs><style>.cls-1,.cls-2{fill:none;stroke:#e3000f;stroke-linecap:round;stroke-width:2px;}.cls-2{stroke-linejoin:round;}</style></defs><title>HOYER_Beratung_100_100_rot</title><path class="cls-1" d="M21.58,33.6H52.86M21.58,26.91H52.86M21.58,40.06h10"/><path class="cls-1" d="M47.44,55.69H78.72M47.44,49H78.72M47.44,62.15h10"/><path class="cls-2" d="M61.75,40V22.71a4.44,4.44,0,0,0-4.44-4.44H16.94a4.44,4.44,0,0,0-4.44,4.44V45.17a4.44,4.44,0,0,0,4.44,4.44h4.53V59.94L31.8,49.61h6.53"/><path class="cls-2" d="M42.9,40.25H83.08a4.42,4.42,0,0,1,4.42,4.42V67a4.42,4.42,0,0,1-4.42,4.42H78.57V81.73L68.29,71.45H42.9A4.42,4.42,0,0,1,38.48,67V44.67A4.42,4.42,0,0,1,42.9,40.25Z"/></svg>