<svg id="Icon" xmlns="http://www.w3.org/2000/svg" viewBox="0 0 100 100"><defs><style>.cls-1,.cls-2{fill:none;stroke:#e3000f;stroke-linecap:round;stroke-width:2px;}.cls-1{stroke-linejoin:round;}</style></defs><title>HOYER_Werklogistik_100_100_rot</title><path class="cls-1" d="M35.54,72.71a31.52,31.52,0,0,1-14.44-23"/><path class="cls-1" d="M83.67,50.23a31.56,31.56,0,0,1-14.41,22.5"/><path class="cls-1" d="M40.62,16.83a31.59,31.59,0,0,1,26.58,1.4"/><polygon class="cls-1" points="38.84 44.59 38.84 22.27 25.62 18.27 12.5 22.27 12.5 44.59 38.84 44.59"/><line class="cls-1" x1="16.77" y1="25.61" x2="21.11" y2="25.61"/><line class="cls-1" x1="23.5" y1="25.61" x2="27.84" y2="25.61"/><line class="cls-1" x1="30.23" y1="25.61" x2="34.57" y2="25.61"/><polyline class="cls-1" points="16.92 44.32 16.92 30.22 34.32 30.22 34.32 44.43"/><path class="cls-1" d="M62.93,57.06s-.22-1-.67-2.61A1.83,1.83,0,0,0,60.42,53H44.3a1.83,1.83,0,0,0-1.84,1.45c-.45,1.57-.67,2.61-.67,2.61Z"/><path class="cls-1" d="M41.28,59.31H36.87v4.14a2.15,2.15,0,0,0,1.4,2c1.5.78,1.92,1,1.92,1"/><path class="cls-1" d="M63.55,59.31H68v4.14a2.15,2.15,0,0,1-1.4,2c-1.5.78-1.92,1-1.92,1"/><path class="cls-1" d="M41.79,57.06,40.33,64v2.18S40,67.69,42.9,67.69H62s2.48,0,2.48-1.4V64L63,57.06"/><path class="cls-1" d="M40.32,66.58v6.84A1.65,1.65,0,0,0,42,75.1H62.75a1.65,1.65,0,0,0,1.68-1.68V66.58"/><path class="cls-1" d="M41.68,83.33V85s0,.42.3.42h3.8s.31,0,.31-.42v-1.7"/><path class="cls-1" d="M58.56,83.33V85s0,.42.31.42h3.8s.31,0,.31-.42v-1.7"/><path class="cls-1" d="M42,75.12a1.65,1.65,0,0,0-1.68,1.68v4.61A1.64,1.64,0,0,0,42,83.08H62.75a1.64,1.64,0,0,0,1.68-1.67V76.8a1.65,1.65,0,0,0-1.68-1.68Z"/><line class="cls-1" x1="42.82" y1="68.03" x2="44.43" y2="74.89"/><line class="cls-1" x1="61.89" y1="68.03" x2="60.27" y2="74.89"/><line class="cls-1" x1="56.83" y1="78.93" x2="47.85" y2="78.93"/><rect class="cls-1" x="58.27" y="26.2" width="12.05" height="12.05"/><rect class="cls-1" x="74.35" y="26.2" width="12.05" height="12.05"/><polyline class="cls-2" points="87.5 45.11 87.5 41.97 57.17 41.97 57.17 45.11"/><line class="cls-2" x1="72.33" y1="42.15" x2="72.33" y2="45.14"/></svg>