<svg xmlns="http://www.w3.org/2000/svg" viewBox="0 0 100 100"><defs></defs><path d="M36,43.13A13.49,13.49,0,0,0,26.2,39,13.9,13.9,0,0,0,12.5,52.82C12.43,58.51,15.13,62,20,68.34l.05.07c.88,1.14,1.79,2.31,2.78,3.62.47.66.92,1.28,1.37,1.88.61.83,1.19,1.62,1.74,2.43l.22.32.21-.32c1-1.46,2.08-2.93,3.11-4.31l2.59-3.37c4.81-6.23,7.71-10,7.78-15.66A13.8,13.8,0,0,0,36,43.13Z"/><path d="M26.24,47.3a5.51,5.51,0,0,0-.08,11h.08a5.51,5.51,0,0,0,0-11Z"/><path d="M55.09,21a6.84,6.84,0,0,0-4.94-2.09,7,7,0,0,0-6.93,7c0,2.88,1.33,4.64,3.81,7.85l0,0c.45.57.91,1.17,1.4,1.83.24.33.47.65.7.95s.6.82.88,1.23l.11.16.11-.16c.5-.74,1.05-1.49,1.57-2.18l1.31-1.71c2.43-3.15,3.9-5.05,3.94-7.92A7,7,0,0,0,55.09,21Z"/><path d="M50.17,23.12a2.79,2.79,0,1,0,0,5.57h0a2.79,2.79,0,0,0,0-5.57Z"/><path d="M84.75,29.14a9.45,9.45,0,0,0-6.82-2.9,9.72,9.72,0,0,0-9.58,9.67c0,4,1.84,6.42,5.27,10.85l0,.05c.61.79,1.25,1.62,1.94,2.53l1,1.32c.42.58.83,1.13,1.22,1.7l.15.22.15-.22c.69-1,1.45-2.06,2.17-3L82.06,47c3.36-4.35,5.39-7,5.44-10.94A9.67,9.67,0,0,0,84.75,29.14Z"/><path d="M78,32.06a3.85,3.85,0,0,0,0,7.7h0a3.85,3.85,0,0,0,0-7.7Z"/><polyline points="50.15 41.66 78.29 57.43 26.32 81.09"/></svg>