<svg width="65" height="65" viewBox="0 0 64 64" fill="none" xmlns="http://www.w3.org/2000/svg">
<path d="M48.644 13.664H45.254V8.664C45.254 7.75 44.512 7.008 43.596 7.008H38.854L38.194 1.822C38.138 1.372 37.718 1 37.262 1H35.022C34.566 1 34.146 1.372 34.088 1.822L33.428 7.008H30.566L29.906 1.822C29.852 1.372 29.432 1 28.976 1H26.736C26.28 1 25.86 1.372 25.804 1.822L25.144 7.008H20.4C19.486 7.008 18.744 7.75 18.744 8.664V13.664H15.356C14.636 13.664 14.052 14.248 14.052 14.968V29.14C22 25.258 30.702 22.728 32 22.728C33.298 22.728 42 25.258 49.948 29.14V14.968C49.948 14.248 49.364 13.664 48.644 13.664ZM22.06 10.322H41.94V13.664H22.06V10.322ZM24.412 20.262H18.458V17.156H24.414V20.262H24.412ZM34.978 20.262H29.022V17.156H34.978V20.262ZM45.542 20.262H39.586V17.156H45.542V20.262Z" fill="#CF1F44"/>
<path d="M14.1999 57.058C15.3219 57.058 16.5539 56.59 17.8639 55.67C18.5839 55.158 19.4439 54.884 20.3399 54.884C21.2319 54.884 22.0899 55.156 22.8219 55.672C24.1259 56.588 25.3579 57.052 26.4819 57.052C27.9959 57.052 28.9079 56.192 28.9459 56.156C29.7259 55.358 30.8479 54.884 32.0019 54.884C33.1539 54.884 34.2759 55.356 35.0819 56.18C35.0819 56.18 35.9979 57.056 37.5199 57.056C38.6419 57.056 39.8739 56.59 41.1799 55.67C41.9079 55.158 42.7659 54.884 43.6599 54.884C44.5559 54.884 45.4139 55.158 46.1459 55.676C47.4459 56.59 48.6799 57.054 49.8039 57.054C50.2379 57.054 50.6039 56.976 50.9319 56.876C54.9299 45.644 61.0519 40.914 59.8479 39.302C54.2459 31.796 33.4299 25.378 31.9999 25.378C30.5699 25.378 9.75392 31.796 4.15192 39.302C2.94792 40.914 9.06992 45.644 13.0699 56.88C13.3979 56.98 13.7659 57.058 14.1999 57.058ZM39.1179 33.41C40.0559 32.974 41.4759 34.036 42.2919 35.786C43.1079 37.536 43.0079 39.308 42.0699 39.746C41.1319 40.182 39.7079 39.12 38.8939 37.37C38.0799 35.62 38.1779 33.85 39.1179 33.41ZM21.7079 35.786C22.5239 34.038 23.9459 32.976 24.8819 33.41C25.8219 33.85 25.9219 35.618 25.1059 37.368C24.2899 39.118 22.8679 40.18 21.9299 39.744C20.9919 39.306 20.8919 37.536 21.7079 35.786Z" fill="#CF1F44"/>
<path d="M37.542 63C35.246 63 33.328 62.222 32.002 61.324C29.618 62.938 25.314 64.172 20.342 61.172C14.382 64.77 9.38399 62.278 7.49799 60.352C6.85799 59.7 6.86999 58.648 7.52399 58.008C8.17799 57.368 9.22599 57.38 9.86599 58.036C10.252 58.414 13.868 61.724 19.39 57.838C19.962 57.432 20.724 57.436 21.296 57.838C26.98 61.836 30.662 58.192 30.818 58.036C31.13 57.716 31.556 57.536 32.002 57.536C32.448 57.536 32.876 57.716 33.186 58.036C33.572 58.414 37.19 61.72 42.706 57.838C43.278 57.434 44.04 57.434 44.612 57.838C50.304 61.84 53.98 58.192 54.136 58.036C54.776 57.382 55.824 57.37 56.478 58.008C57.132 58.648 57.144 59.7 56.504 60.352C54.62 62.278 49.618 64.766 43.66 61.172C41.452 62.504 39.376 63 37.542 63Z" fill="#CF1F44"/>
</svg>
